<svg width="65" height="65" viewBox="0 0 65 65" fill="none" xmlns="http://www.w3.org/2000/svg">
<path d="M32.8388 0.782043L33.328 25.6308L37.1961 1.08009L34.2972 25.764L41.4723 1.96869L35.2392 26.0279L45.5876 3.43128L36.1366 26.4177L49.4655 5.44062L36.9725 26.926L53.0336 7.95928L37.7313 27.5434L56.2256 10.9403L38.3991 28.2584L58.9818 14.3283L38.9633 29.0577L61.2511 18.06L39.4134 29.9263L62.9911 22.0659L39.741 30.8481L64.1695 26.2715L39.94 31.806L64.7642 30.5983L40.0068 32.782L64.7642 34.9658L39.94 33.7581L64.1695 39.2926L39.741 34.7159L62.9911 43.4982L39.4134 35.6378L61.2511 47.5041L38.9633 36.5064L58.9818 51.2358L38.3991 37.3057L56.2256 54.6237L37.7313 38.0207L53.0336 57.6048L36.9725 38.6381L49.4655 60.1235L36.1366 39.1464L45.5876 62.1328L35.2392 39.5362L41.4723 63.5954L34.2972 39.8001L37.1961 64.484L33.328 39.9333L32.8388 64.782L32.3496 39.9333L28.4815 64.484L31.3804 39.8001L24.2053 63.5954L30.4384 39.5362L20.09 62.1328L29.5411 39.1464L16.2121 60.1235L28.7052 38.6381L12.644 57.6048L27.9463 38.0207L9.45205 54.6237L27.2785 37.3057L6.69577 51.2358L26.7143 36.5064L4.42648 47.5041L26.2642 35.6378L2.68646 43.4982L25.9366 34.7159L1.50812 39.2926L25.7376 33.7581L0.913406 34.9658L25.6708 32.782L0.913406 30.5983L25.7376 31.806L1.50812 26.2715L25.9366 30.8481L2.68646 22.0659L26.2642 29.9263L4.42648 18.06L26.7143 29.0577L6.69577 14.3283L27.2785 28.2584L9.45205 10.9403L27.9463 27.5434L12.644 7.95928L28.7052 26.926L16.2121 5.44062L29.5411 26.4177L20.09 3.43128L30.4384 26.0279L24.2053 1.96869L31.3804 25.764L28.4815 1.08009L32.3496 25.6308L32.8388 0.782043Z" fill="black"/>
</svg>
